<svg width="68" height="32" viewBox="0 0 68 32" fill="none" id="svg1448475054_3762">
    <path
        d="M7.48506 31.9996C6.28882 31.9996 5.14384 31.8211 4.05014 31.4645C2.97353 31.1248 2.04216 30.6576 1.25605 30.063L2.33267 25.6803C2.87953 26.4107 3.59727 27.0052 4.48591 27.4639C5.37455 27.9396 6.37427 28.1775 7.48506 28.1775C9.05726 28.1775 10.2792 27.7272 11.1507 26.8269C12.0222 25.9436 12.458 24.8054 12.458 23.4124V22.3422C11.877 22.9369 11.1763 23.404 10.3561 23.7438C9.55287 24.0835 8.66423 24.2533 7.69014 24.2533C6.27174 24.2533 4.98149 23.8881 3.81944 23.1577C2.65737 22.4272 1.72601 21.4589 1.02535 20.2528C0.341784 19.0297 0 17.6792 0 16.2014C0 14.7235 0.341784 13.373 1.02535 12.1499C1.72601 10.9268 2.65737 9.95846 3.81944 9.24504C4.98149 8.51457 6.27174 8.14941 7.69014 8.14941C8.68131 8.14941 9.58704 8.32773 10.4073 8.68452C11.2276 9.02425 11.9283 9.4998 12.5093 10.1113V8.55706H16.3544V24.0495C16.3544 25.7142 15.9442 27.1412 15.1239 28.3304C14.3037 29.5195 13.2185 30.4283 11.8684 31.0567C10.5184 31.6853 9.05726 31.9996 7.48506 31.9996ZM8.22845 20.3547C8.98036 20.3547 9.66394 20.1679 10.2792 19.7942C10.8944 19.4205 11.3814 18.9193 11.7403 18.2907C12.1162 17.6623 12.3042 16.9658 12.3042 16.2014C12.3042 15.4369 12.1162 14.7404 11.7403 14.112C11.3814 13.4834 10.8944 12.9822 10.2792 12.6085C9.66394 12.2348 8.98036 12.048 8.22845 12.048C7.47653 12.048 6.79295 12.2348 6.17774 12.6085C5.56253 12.9822 5.06694 13.4834 4.69098 14.112C4.3321 14.7404 4.15267 15.4369 4.15267 16.2014C4.15267 16.9658 4.3321 17.6623 4.69098 18.2907C5.06694 18.9193 5.56253 19.4205 6.17774 19.7942C6.79295 20.1679 7.47653 20.3547 8.22845 20.3547Z"
        fill="#324252" />
    <path
        d="M17.7168 23.8224V8.30459H21.7309V10.9684C22.2626 10.0718 22.9317 9.38218 23.7379 8.8995C24.5614 8.39949 25.522 8.14941 26.6197 8.14941L27.5976 12.1323C27.2716 12.0289 26.9028 11.9771 26.4912 11.9771C25.2046 11.9771 24.1668 12.3995 23.3776 13.2445C22.5886 14.072 22.194 15.2618 22.194 16.8136V23.8224H17.7168Z"
        fill="#324252" />
    <path
        d="M25.5527 23.8224C26.463 22.9302 27.5487 21.1974 28.2709 19.9418C28.9931 18.6862 30.1453 16.4529 30.0094 12.9194L34.0706 12.9677C34.0797 16.3137 32.9883 19.0828 32.3427 20.3876C31.7135 21.6956 30.8726 22.8101 29.8706 23.8224H25.5527Z"
        fill="#324252" />
    <path
        d="M30.0426 9.83388C30.4035 10.3665 30.9156 10.6966 31.5785 10.824C32.2561 10.9543 32.854 10.8375 33.3722 10.4739C33.905 10.1131 34.2353 9.60141 34.3627 8.93853C34.4902 8.27566 34.3735 7.67808 34.0125 7.14546C33.666 6.6157 33.1541 6.28561 32.4766 6.15535C31.8136 6.02795 31.2157 6.14458 30.6829 6.50541C30.1501 6.86624 29.82 7.3781 29.6926 8.04081C29.5649 8.70368 29.6818 9.30143 30.0426 9.83388Z"
        fill="#324252" />
    <path
        d="M36.1143 23.8224V8.65505H40.1465V10.3235C40.6979 9.6157 41.3785 9.07638 42.1884 8.70566C42.9983 8.33478 43.8685 8.14941 44.799 8.14941C45.9019 8.14941 46.9271 8.41061 47.875 8.93317C48.8399 9.43864 49.6153 10.1887 50.2012 11.1829C50.8043 12.1605 51.1058 13.3485 51.1058 14.7472V23.8224H46.6083V15.3287C46.6083 14.486 46.3499 13.7361 45.8329 13.0788C45.3161 12.4217 44.5751 12.0929 43.6101 12.0929C42.8347 12.0929 42.1368 12.3541 41.5165 12.8767C40.9133 13.3822 40.6117 14.1827 40.6117 15.2781V23.8224H36.1143Z"
        fill="#324252" />
    <path
        d="M52.4707 23.8224V8.65505H56.4113V10.3235C56.9502 9.6157 57.6153 9.07638 58.4068 8.70566C59.1982 8.33478 60.0487 8.14941 60.9581 8.14941C62.0359 8.14941 63.0378 8.41061 63.9641 8.93317C64.9071 9.43864 65.6649 10.1887 66.2375 11.1829C66.8269 12.1605 67.1215 13.3485 67.1215 14.7472V23.8224H62.7263V15.3287C62.7263 14.486 62.4737 13.7361 61.9685 13.0788C61.4634 12.4217 60.7392 12.0929 59.7962 12.0929C59.0384 12.0929 58.3564 12.3541 57.7501 12.8767C57.1606 13.3822 56.866 14.1827 56.866 15.2781V23.8224H52.4707Z"
        fill="#324252" />
</svg>